# xmcd CD database file
# Copyright (C) 1993-1996 Ti Kan
#
# Track frame offsets:
#	150
#	11193
#	24199
#	37404
#	53302
#	68037
#	83650
#	96438
#	110381
#	122544
#	137004
#
# Disc length: 1974 seconds
#
# Revision: 1
# Processed by: cddbd v1.4b41PL1 Copyright (c) Steve Scherf et al.
# Submitted via: xmcd 2.0
#
DISCID=8707b40b
DTITLE=Taylor Weaver - Once in a Lover's Moon
DYEAR=1900
DGENRE=
TTITLE0=No Way to Live, No Way to Love
TTITLE1=The Love I Had With You
TTITLE2=The Brush of Time
TTITLE3=I Can't Get You Out of My Mind
TTITLE4=Bitter Homes and Gardens
TTITLE5=Table for Two
TTITLE6=Waltz of the Wallflower
TTITLE7=I'll Be the One
TTITLE8=I Cried a River
TTITLE9=Once in a Lover's Moon
TTITLE10=Play On
EXTD=Copyright 1994, ATW Music Group\nP. O. Box 931 0 Georgetown, Texa
EXTD=s 0 78627 0 USA \nAll rights reserved.\n\nMore details at http://ww
EXTD=w.netads.com/arts/music/tw/\n\nThe Musicians \n\n     Johnny Gimble 
EXTD=Fiddle and Electric Mandolin \n     Chip Abernathy Drums and Percussi
EXTD=on \n     Brent Dacus Drums \n     Les Huff Acoustic Guitar, Keybo
EXTD=ard and Mandolin \n     M. H. Martin Electric Guitar \n     Pete Mil
EXTD=ler Bass \n     T. Mitchell Smithey Steel Guitar and Dobro \n     We
EXTD=s Taylor Electric Guitar \n     Taylor Weaver Keyboard \n\nVocals \n
EXTD=\nTaylor Weaver, M. H. Martin and Linda Morgan \n\nSpecial, Special
EXTD=Thanks \n\nto Johnny Gimble for being a part of this project. To 
EXTD=Bubba Pope, Michael Henry, Mel Holt\nand all the musicians who ma
EXTD=ke it happen! \n\nSpecial Thanks \n\nto "The Friends of Taylor Weave
EXTD=r", to my family and to all the fans who give me a reason\nto "Pl
EXTD=ay On." \n\nThanks \n\nto Debby and Alan for tromping through the we
EXTD=eds with me during my photo session and to\nthe Garretts for the 
EXTD=great catfish "Celebration Supper." To Liza Lynn, Ltd., Lewis an
EXTD=d Andy\nJackson, and Linda Orsak for going the extra mile for me.
EXTD=\n\nThis album is dedicated to Bubba Pope for his tremendous beli
EXTD=ef in and\ncontribution to this project. \n\n\nAll the other stuff \n
EXTD=\nProduced by Michael Henry Martin and Taylor Weaver. \n\nRecorded 
EXTD=at Castle Sound Productions, Abilene, Texas and Austin Recording
EXTD=Studio, Austin,\nTexas \n\nEngineered by M. H. Martin and Wink Tyl
EXTD=er \n\nMixed by M. H. Martin at Castle Sound Productions \n\nMastere
EXTD=d by Jerry Tubb at Terra Nova Digital Audio, Austin, Texas \n\nPho
EXTD=tography by Lewis Jackson, Georgetown, Texas \n\nGraphic Design by
EXTD=Andy Jackson, Austin, Texas \n\nWardrobe by Liza Lynn, Ltd., Geor
EXTD=getown, Texas \n
EXTT0=
EXTT1=
EXTT2=
EXTT3=
EXTT4=
EXTT5=
EXTT6=
EXTT7=
EXTT8=
EXTT9=
EXTT10=
PLAYORDER=
